<mxfile host="65bd71144e">
    <diagram id="l7EhCaUVACjtlKmBmOul" name="第 1 页">
        <mxGraphModel dx="1130" dy="779" grid="1" gridSize="10" guides="1" tooltips="1" connect="1" arrows="1" fold="1" page="1" pageScale="1" pageWidth="827" pageHeight="1169" background="#ffffff" math="0" shadow="0">
            <root>
                <mxCell id="0"/>
                <mxCell id="1" parent="0"/>
                <mxCell id="2" value="componentUpdateFn()" style="rounded=0;whiteSpace=wrap;html=1;fillColor=#f5f5f5;fontColor=#333333;strokeColor=#666666;" parent="1" vertex="1">
                    <mxGeometry x="329" y="90" width="170" height="60" as="geometry"/>
                </mxCell>
                <mxCell id="3" value="" style="endArrow=classic;html=1;exitX=0.5;exitY=1;exitDx=0;exitDy=0;fillColor=#f5f5f5;strokeColor=#666666;entryX=0.5;entryY=0;entryDx=0;entryDy=0;" parent="1" source="2" target="6" edge="1">
                    <mxGeometry width="50" height="50" relative="1" as="geometry">
                        <mxPoint x="390" y="420" as="sourcePoint"/>
                        <mxPoint x="414" y="210" as="targetPoint"/>
                    </mxGeometry>
                </mxCell>
                <mxCell id="6" value="instance.isMounted?" style="rhombus;whiteSpace=wrap;html=1;fillColor=#f5f5f5;fontColor=#333333;strokeColor=#666666;" parent="1" vertex="1">
                    <mxGeometry x="332" y="210" width="164" height="80" as="geometry"/>
                </mxCell>
                <mxCell id="7" value="" style="endArrow=classic;html=1;exitX=0;exitY=0.5;exitDx=0;exitDy=0;fillColor=#f5f5f5;strokeColor=#666666;" parent="1" source="6" target="8" edge="1">
                    <mxGeometry width="50" height="50" relative="1" as="geometry">
                        <mxPoint x="390" y="420" as="sourcePoint"/>
                        <mxPoint x="270" y="370" as="targetPoint"/>
                    </mxGeometry>
                </mxCell>
                <mxCell id="8" value="const subTree = instance.subTree = renderComponentRoot(instance)" style="rounded=0;whiteSpace=wrap;html=1;fillColor=#f5f5f5;fontColor=#333333;strokeColor=#666666;" parent="1" vertex="1">
                    <mxGeometry x="130" y="340" width="200" height="60" as="geometry"/>
                </mxCell>
                <mxCell id="9" value="&lt;font color=&quot;#000000&quot;&gt;no&lt;/font&gt;" style="text;html=1;align=center;verticalAlign=middle;resizable=0;points=[];autosize=1;strokeColor=none;fillColor=none;" parent="1" vertex="1">
                    <mxGeometry x="280" y="280" width="40" height="30" as="geometry"/>
                </mxCell>
                <mxCell id="10" value="" style="endArrow=classic;html=1;exitX=1;exitY=0.5;exitDx=0;exitDy=0;fillColor=#f5f5f5;strokeColor=#666666;" parent="1" source="6" target="11" edge="1">
                    <mxGeometry width="50" height="50" relative="1" as="geometry">
                        <mxPoint x="642" y="250" as="sourcePoint"/>
                        <mxPoint x="580" y="370" as="targetPoint"/>
                    </mxGeometry>
                </mxCell>
                <mxCell id="11" value="const nextTree = renderComponentRoot(instance)" style="rounded=0;whiteSpace=wrap;html=1;fillColor=#f5f5f5;fontColor=#333333;strokeColor=#666666;" parent="1" vertex="1">
                    <mxGeometry x="499" y="340" width="190" height="60" as="geometry"/>
                </mxCell>
                <mxCell id="12" value="&lt;font color=&quot;#000000&quot;&gt;yes&lt;/font&gt;" style="text;html=1;align=center;verticalAlign=middle;resizable=0;points=[];autosize=1;strokeColor=none;fillColor=none;" parent="1" vertex="1">
                    <mxGeometry x="520" y="270" width="40" height="30" as="geometry"/>
                </mxCell>
                <mxCell id="13" value="这个函数是用于生成&lt;br&gt;组件的vdom树的" style="text;html=1;align=center;verticalAlign=middle;resizable=0;points=[];autosize=1;strokeColor=none;fillColor=none;fontColor=#000000;" parent="1" vertex="1">
                    <mxGeometry y="350" width="130" height="40" as="geometry"/>
                </mxCell>
                <mxCell id="14" value="" style="endArrow=classic;html=1;fontColor=#000000;exitX=0.5;exitY=1;exitDx=0;exitDy=0;fillColor=#f5f5f5;strokeColor=#666666;" parent="1" source="8" target="15" edge="1">
                    <mxGeometry width="50" height="50" relative="1" as="geometry">
                        <mxPoint x="390" y="400" as="sourcePoint"/>
                        <mxPoint x="230" y="470" as="targetPoint"/>
                    </mxGeometry>
                </mxCell>
                <mxCell id="15" value="patch(&lt;br&gt;null,&lt;br&gt;subTree&lt;br&gt;container,&lt;br&gt;anchor)" style="rounded=0;whiteSpace=wrap;html=1;fontColor=#333333;fillColor=#f5f5f5;strokeColor=#666666;" parent="1" vertex="1">
                    <mxGeometry x="170" y="440" width="120" height="80" as="geometry"/>
                </mxCell>
                <mxCell id="16" value="" style="endArrow=classic;html=1;fontColor=#000000;exitX=0.5;exitY=1;exitDx=0;exitDy=0;fillColor=#f5f5f5;strokeColor=#666666;" parent="1" source="11" target="17" edge="1">
                    <mxGeometry width="50" height="50" relative="1" as="geometry">
                        <mxPoint x="390" y="360" as="sourcePoint"/>
                        <mxPoint x="590" y="450" as="targetPoint"/>
                    </mxGeometry>
                </mxCell>
                <mxCell id="21" style="edgeStyle=none;html=1;exitX=0.5;exitY=1;exitDx=0;exitDy=0;entryX=0.5;entryY=0;entryDx=0;entryDy=0;strokeColor=#000000;" edge="1" parent="1" source="17" target="20">
                    <mxGeometry relative="1" as="geometry"/>
                </mxCell>
                <mxCell id="17" value="const prevTree = instance.subTree" style="rounded=0;whiteSpace=wrap;html=1;fontColor=#333333;fillColor=#f5f5f5;strokeColor=#666666;" parent="1" vertex="1">
                    <mxGeometry x="534" y="430" width="120" height="60" as="geometry"/>
                </mxCell>
                <mxCell id="19" value="patch(&lt;br&gt;prevTree,&lt;br&gt;nextTree,&lt;br&gt;container,&lt;br&gt;anchor)" style="rounded=0;whiteSpace=wrap;html=1;fontColor=#333333;fillColor=#f5f5f5;strokeColor=#666666;" parent="1" vertex="1">
                    <mxGeometry x="534" y="620" width="120" height="85" as="geometry"/>
                </mxCell>
                <mxCell id="22" style="edgeStyle=none;html=1;exitX=0.5;exitY=1;exitDx=0;exitDy=0;strokeColor=#000000;" edge="1" parent="1" source="20" target="19">
                    <mxGeometry relative="1" as="geometry"/>
                </mxCell>
                <mxCell id="20" value="instance.subTree = nextTree" style="rounded=0;whiteSpace=wrap;html=1;fontColor=#333333;fillColor=#f5f5f5;strokeColor=#666666;" vertex="1" parent="1">
                    <mxGeometry x="534" y="525" width="120" height="60" as="geometry"/>
                </mxCell>
            </root>
        </mxGraphModel>
    </diagram>
</mxfile>